<svg width="31" height="24" viewBox="0 0 31 24" fill="none" xmlns="http://www.w3.org/2000/svg">
<path d="M26 0H5C3.80653 0 2.66193 0.474106 1.81802 1.31802C0.974106 2.16193 0.5 3.30653 0.5 4.5V19.5C0.5 20.6935 0.974106 21.8381 1.81802 22.682C2.66193 23.5259 3.80653 24 5 24H26C27.1935 24 28.3381 23.5259 29.182 22.682C30.0259 21.8381 30.5 20.6935 30.5 19.5V4.5C30.5 3.30653 30.0259 2.16193 29.182 1.31802C28.3381 0.474106 27.1935 0 26 0ZM26 3L16.25 9.705C16.022 9.83665 15.7633 9.90596 15.5 9.90596C15.2367 9.90596 14.978 9.83665 14.75 9.705L5 3H26Z" fill="#F0D68D"/>
</svg>
