<svg width="30" height="30" viewBox="0 0 30 30" fill="none" xmlns="http://www.w3.org/2000/svg">
<g clip-path="url(#clip0_311_412)">
<path fill-rule="evenodd" clip-rule="evenodd" d="M7.03125 0H22.9688C26.852 0 30 3.148 30 7.03125V22.9688C30 26.852 26.852 30 22.9688 30H7.03125C3.148 30 0 26.852 0 22.9688V7.03125C0 3.148 3.148 0 7.03125 0ZM3.28125 15.2345C3.28125 8.76211 8.52879 3.51562 15.0001 3.51562C21.4719 3.51562 26.7188 8.76223 26.7188 15.2345C26.7188 20.4104 23.3652 24.8016 18.7114 26.3529C18.1174 26.468 17.9065 26.1026 17.9065 25.7907C17.9065 25.6627 17.908 25.4384 17.91 25.1385C17.914 24.5341 17.9201 23.6228 17.9201 22.5748C17.9201 21.4814 17.5455 20.7683 17.1252 20.4046C19.7347 20.1145 22.4762 19.1235 22.4762 14.6224C22.4762 13.343 22.0215 12.2975 21.2701 11.4769C21.3919 11.1818 21.7931 9.98977 21.1553 8.37574C21.1553 8.37574 20.1725 8.06063 17.9358 9.57691C16.9993 9.31723 15.996 9.18703 15.0001 9.18258C14.0041 9.18703 13.0017 9.31723 12.0669 9.5768C9.82746 8.06063 8.84332 8.37563 8.84332 8.37563C8.20699 9.98977 8.60813 11.1817 8.72988 11.4769C7.98023 12.2975 7.5225 13.343 7.5225 14.6224C7.5225 19.1127 10.2586 20.1176 12.8616 20.4139C12.5264 20.7066 12.2228 21.2235 12.1175 21.981C11.4489 22.2804 9.75258 22.7984 8.70738 21.0068C8.70738 21.0068 8.0877 19.8818 6.9109 19.7992C6.9109 19.7992 5.7675 19.7842 6.83074 20.5116C6.83074 20.5116 7.59879 20.8717 8.13199 22.2263C8.13199 22.2263 8.81988 24.3178 12.08 23.6089C12.0828 24.1418 12.0873 24.658 12.0908 25.0629C12.0937 25.4022 12.096 25.6633 12.096 25.7907C12.096 26.1002 11.8809 26.4629 11.2954 26.3544C6.63902 24.8048 3.28125 20.4122 3.28125 15.2345ZM7.46953 20.2451C7.55297 20.285 7.64461 20.2676 7.67039 20.2093C7.6998 20.151 7.65129 20.0708 7.56609 20.0326C7.48137 19.9924 7.38949 20.0091 7.3643 20.0691C7.33676 20.1274 7.38445 20.2069 7.46953 20.2451ZM8.00754 20.6695C8.0816 20.7514 8.19094 20.7756 8.24684 20.7237C8.3052 20.6713 8.29019 20.5629 8.21355 20.4802C8.1368 20.3985 8.03074 20.3742 7.9732 20.426C7.91648 20.4786 7.9309 20.5879 8.00754 20.6695ZM8.38043 21.2807C8.45297 21.385 8.57039 21.4317 8.64223 21.3818C8.71559 21.3308 8.71559 21.2058 8.64398 21.0998C8.57039 20.9964 8.45473 20.9514 8.38195 21.0014C8.30859 21.0516 8.30859 21.1765 8.38043 21.2807ZM9.00984 22.0991C9.11004 22.1958 9.2468 22.2148 9.31102 22.144C9.37957 22.0739 9.34852 21.9388 9.2468 21.8446C9.1459 21.7487 9.00832 21.7287 8.94328 21.7997C8.87883 21.8706 8.90742 22.0046 9.00984 22.0991ZM9.88254 22.4958C10.0153 22.5348 10.147 22.4931 10.1754 22.4012C10.2029 22.3079 10.1161 22.2012 9.98367 22.1612C9.84996 22.1195 9.71766 22.163 9.69012 22.2553C9.66328 22.3481 9.75012 22.4556 9.88254 22.4958ZM10.9105 22.6889C11.0498 22.6871 11.1623 22.607 11.1591 22.5104C11.1591 22.4143 11.045 22.3368 10.9056 22.3395C10.7655 22.3418 10.6555 22.4211 10.6555 22.5188C10.657 22.6138 10.7704 22.6921 10.9105 22.6889ZM11.907 22.6903C12.0454 22.6645 12.1421 22.5676 12.1254 22.4734C12.1078 22.3775 11.9838 22.3208 11.8452 22.3448C11.7094 22.3699 11.6108 22.4667 11.6277 22.5634C11.6449 22.6569 11.7709 22.7152 11.907 22.6903Z" fill="#F0D68D"/>
</g>
<defs>
<clipPath id="clip0_311_412">
<rect width="30" height="30" fill="white"/>
</clipPath>
</defs>
</svg>
