<svg width="24" height="31" viewBox="0 0 24 31" fill="none" xmlns="http://www.w3.org/2000/svg">
<path d="M21 30.5C21.7957 30.5 22.5587 30.1839 23.1213 29.6213C23.6839 29.0587 24 28.2957 24 27.5V9.5L15 0.5H3C2.20435 0.5 1.44129 0.81607 0.87868 1.37868C0.31607 1.94129 0 2.70435 0 3.5V27.5C0 28.2957 0.31607 29.0587 0.87868 29.6213C1.44129 30.1839 2.20435 30.5 3 30.5H21ZM13.5 3.5L21 11H13.5V3.5ZM4.5 9.5H9V12.5H4.5V9.5ZM4.5 15.5H19.5V18.5H4.5V15.5ZM4.5 21.5H19.5V24.5H4.5V21.5Z" fill="#F0D68D"/>
</svg>
